<svg xmlns="http://www.w3.org/2000/svg" xmlns:xlink="http://www.w3.org/1999/xlink" width="400" zoomAndPan="magnify" viewBox="0 0 300 60" height="80" preserveAspectRatio="xMidYMid meet" version="1.0"><defs><g/></defs><g fill="#ffffff" fill-opacity="1"><g transform="translate(0.621094, 41.25)"><g><path d="M 16.8125 -21.140625 L 18.25 -18.84375 L 5.6875 -11.140625 L 18.25 -3.359375 L 16.65625 -1.171875 L 3.125 -9.625 L 3.125 -12.6875 Z M 16.8125 -21.140625 "/></g></g></g><g fill="#ffffff" fill-opacity="1"><g transform="translate(21.96096, 41.25)"><g><path d="M 6.5625 -26.5625 L 6.5625 -16.171875 C 7.300781 -17.148438 8.207031 -17.882812 9.28125 -18.375 C 10.351562 -18.875 11.441406 -19.125 12.546875 -19.125 C 14.367188 -19.125 15.703125 -18.632812 16.546875 -17.65625 C 17.390625 -16.6875 17.8125 -15.335938 17.8125 -13.609375 L 17.8125 0 L 14.8125 0 L 14.8125 -13.53125 C 14.8125 -14.664062 14.550781 -15.488281 14.03125 -16 C 13.507812 -16.519531 12.691406 -16.78125 11.578125 -16.78125 C 10.867188 -16.78125 10.191406 -16.617188 9.546875 -16.296875 C 8.910156 -15.972656 8.335938 -15.570312 7.828125 -15.09375 C 7.316406 -14.625 6.894531 -14.140625 6.5625 -13.640625 L 6.5625 0 L 3.578125 0 L 3.578125 -26.234375 Z M 6.5625 -26.5625 "/></g></g></g><g fill="#ffffff" fill-opacity="1"><g transform="translate(43.300826, 41.25)"><g><path d="M 16.984375 -4.09375 C 16.984375 -3.34375 17.109375 -2.796875 17.359375 -2.453125 C 17.609375 -2.109375 17.992188 -1.851562 18.515625 -1.6875 L 17.796875 0.40625 C 16.984375 0.300781 16.273438 0.046875 15.671875 -0.359375 C 15.066406 -0.773438 14.628906 -1.394531 14.359375 -2.21875 C 13.679688 -1.351562 12.835938 -0.695312 11.828125 -0.25 C 10.816406 0.1875 9.703125 0.40625 8.484375 0.40625 C 6.609375 0.40625 5.128906 -0.117188 4.046875 -1.171875 C 2.972656 -2.222656 2.4375 -3.625 2.4375 -5.375 C 2.4375 -7.300781 3.1875 -8.78125 4.6875 -9.8125 C 6.195312 -10.851562 8.375 -11.375 11.21875 -11.375 L 13.984375 -11.375 L 13.984375 -12.9375 C 13.984375 -14.28125 13.585938 -15.234375 12.796875 -15.796875 C 12.003906 -16.367188 10.910156 -16.65625 9.515625 -16.65625 C 8.898438 -16.65625 8.175781 -16.578125 7.34375 -16.421875 C 6.519531 -16.273438 5.617188 -16.03125 4.640625 -15.6875 L 3.859375 -17.953125 C 5.003906 -18.378906 6.082031 -18.679688 7.09375 -18.859375 C 8.101562 -19.035156 9.066406 -19.125 9.984375 -19.125 C 12.316406 -19.125 14.066406 -18.582031 15.234375 -17.5 C 16.398438 -16.414062 16.984375 -14.941406 16.984375 -13.078125 Z M 9.25 -1.875 C 10.175781 -1.875 11.054688 -2.101562 11.890625 -2.5625 C 12.734375 -3.03125 13.429688 -3.679688 13.984375 -4.515625 L 13.984375 -9.34375 L 11.28125 -9.34375 C 9.21875 -9.34375 7.757812 -8.984375 6.90625 -8.265625 C 6.0625 -7.554688 5.640625 -6.601562 5.640625 -5.40625 C 5.640625 -4.25 5.9375 -3.367188 6.53125 -2.765625 C 7.132812 -2.171875 8.039062 -1.875 9.25 -1.875 Z M 9.25 -1.875 "/></g></g></g><g fill="#ffffff" fill-opacity="1"><g transform="translate(64.640692, 41.25)"><g><path d="M 3.75 0 L 3.75 -2.296875 L 6.671875 -2.296875 L 6.671875 -16.4375 L 3.75 -16.4375 L 3.75 -18.734375 L 8.953125 -18.734375 L 9.5 -14.296875 C 10.21875 -15.835938 11.09375 -17.03125 12.125 -17.875 C 13.164062 -18.71875 14.53125 -19.140625 16.21875 -19.140625 C 16.738281 -19.140625 17.203125 -19.097656 17.609375 -19.015625 C 18.023438 -18.941406 18.445312 -18.847656 18.875 -18.734375 L 18 -16.0625 C 17.613281 -16.164062 17.257812 -16.242188 16.9375 -16.296875 C 16.613281 -16.359375 16.242188 -16.390625 15.828125 -16.390625 C 14.398438 -16.390625 13.164062 -15.878906 12.125 -14.859375 C 11.09375 -13.835938 10.269531 -12.296875 9.65625 -10.234375 L 9.65625 -2.296875 L 13.46875 -2.296875 L 13.46875 0 Z M 16 -12.40625 L 16 -16.46875 L 16.296875 -18.734375 L 18.875 -18.734375 L 18.453125 -12.40625 Z M 16 -12.40625 "/></g></g></g><g fill="#ffffff" fill-opacity="1"><g transform="translate(85.980558, 41.25)"><g><path d="M 9.9375 -2.0625 C 11.375 -2.0625 12.507812 -2.332031 13.34375 -2.875 C 14.1875 -3.414062 14.609375 -4.132812 14.609375 -5.03125 C 14.609375 -5.601562 14.503906 -6.097656 14.296875 -6.515625 C 14.085938 -6.929688 13.660156 -7.300781 13.015625 -7.625 C 12.378906 -7.957031 11.394531 -8.289062 10.0625 -8.625 C 8.769531 -8.945312 7.644531 -9.316406 6.6875 -9.734375 C 5.738281 -10.160156 5 -10.710938 4.46875 -11.390625 C 3.945312 -12.066406 3.6875 -12.941406 3.6875 -14.015625 C 3.6875 -15.066406 3.984375 -15.972656 4.578125 -16.734375 C 5.179688 -17.503906 6.015625 -18.09375 7.078125 -18.5 C 8.148438 -18.914062 9.390625 -19.125 10.796875 -19.125 C 12.304688 -19.125 13.617188 -18.925781 14.734375 -18.53125 C 15.859375 -18.132812 16.8125 -17.644531 17.59375 -17.0625 L 16.28125 -15.03125 C 15.5625 -15.519531 14.773438 -15.921875 13.921875 -16.234375 C 13.066406 -16.546875 12.035156 -16.703125 10.828125 -16.703125 C 9.359375 -16.703125 8.316406 -16.472656 7.703125 -16.015625 C 7.085938 -15.554688 6.78125 -14.96875 6.78125 -14.25 C 6.78125 -13.707031 6.929688 -13.253906 7.234375 -12.890625 C 7.535156 -12.523438 8.046875 -12.195312 8.765625 -11.90625 C 9.492188 -11.613281 10.492188 -11.296875 11.765625 -10.953125 C 12.984375 -10.640625 14.046875 -10.253906 14.953125 -9.796875 C 15.859375 -9.347656 16.566406 -8.753906 17.078125 -8.015625 C 17.585938 -7.285156 17.84375 -6.335938 17.84375 -5.171875 C 17.84375 -3.847656 17.460938 -2.773438 16.703125 -1.953125 C 15.941406 -1.128906 14.957031 -0.53125 13.75 -0.15625 C 12.550781 0.21875 11.28125 0.40625 9.9375 0.40625 C 8.25 0.40625 6.804688 0.160156 5.609375 -0.328125 C 4.421875 -0.816406 3.421875 -1.410156 2.609375 -2.109375 L 4.328125 -4.09375 C 5.054688 -3.488281 5.898438 -3 6.859375 -2.625 C 7.816406 -2.25 8.84375 -2.0625 9.9375 -2.0625 Z M 9.9375 -2.0625 "/></g></g></g><g fill="#ffffff" fill-opacity="1"><g transform="translate(107.320424, 41.25)"><g><path d="M 6.5625 -26.5625 L 6.5625 -16.171875 C 7.300781 -17.148438 8.207031 -17.882812 9.28125 -18.375 C 10.351562 -18.875 11.441406 -19.125 12.546875 -19.125 C 14.367188 -19.125 15.703125 -18.632812 16.546875 -17.65625 C 17.390625 -16.6875 17.8125 -15.335938 17.8125 -13.609375 L 17.8125 0 L 14.8125 0 L 14.8125 -13.53125 C 14.8125 -14.664062 14.550781 -15.488281 14.03125 -16 C 13.507812 -16.519531 12.691406 -16.78125 11.578125 -16.78125 C 10.867188 -16.78125 10.191406 -16.617188 9.546875 -16.296875 C 8.910156 -15.972656 8.335938 -15.570312 7.828125 -15.09375 C 7.316406 -14.625 6.894531 -14.140625 6.5625 -13.640625 L 6.5625 0 L 3.578125 0 L 3.578125 -26.234375 Z M 6.5625 -26.5625 "/></g></g></g><g fill="#ffffff" fill-opacity="1"><g transform="translate(128.66029, 41.25)"><g><path d="M 13.0625 -18.734375 L 13.0625 -2.359375 L 18.34375 -2.359375 L 18.34375 0 L 4.28125 0 L 4.28125 -2.359375 L 10.0625 -2.359375 L 10.0625 -16.359375 L 4.46875 -16.359375 L 4.46875 -18.734375 Z M 10.671875 -27.5 C 11.335938 -27.5 11.867188 -27.296875 12.265625 -26.890625 C 12.660156 -26.492188 12.859375 -26.003906 12.859375 -25.421875 C 12.859375 -24.816406 12.660156 -24.304688 12.265625 -23.890625 C 11.867188 -23.484375 11.335938 -23.28125 10.671875 -23.28125 C 10.046875 -23.28125 9.53125 -23.484375 9.125 -23.890625 C 8.71875 -24.304688 8.515625 -24.816406 8.515625 -25.421875 C 8.515625 -26.003906 8.71875 -26.492188 9.125 -26.890625 C 9.53125 -27.296875 10.046875 -27.5 10.671875 -27.5 Z M 10.671875 -27.5 "/></g></g></g><g fill="#ffffff" fill-opacity="1"><g transform="translate(150.000156, 41.25)"><g><path d="M 18.453125 -0.9375 C 17.804688 -0.507812 17.023438 -0.179688 16.109375 0.046875 C 15.203125 0.285156 14.3125 0.40625 13.4375 0.40625 C 11.414062 0.40625 9.859375 -0.117188 8.765625 -1.171875 C 7.679688 -2.222656 7.140625 -3.582031 7.140625 -5.25 L 7.140625 -16.421875 L 2.828125 -16.421875 L 2.828125 -18.734375 L 7.140625 -18.734375 L 7.140625 -22.984375 L 10.125 -23.34375 L 10.125 -18.734375 L 16.59375 -18.734375 L 16.234375 -16.421875 L 10.125 -16.421875 L 10.125 -5.28125 C 10.125 -4.238281 10.398438 -3.441406 10.953125 -2.890625 C 11.503906 -2.347656 12.421875 -2.078125 13.703125 -2.078125 C 14.398438 -2.078125 15.046875 -2.160156 15.640625 -2.328125 C 16.234375 -2.492188 16.785156 -2.707031 17.296875 -2.96875 Z M 18.453125 -0.9375 "/></g></g></g><g fill="#ffffff" fill-opacity="1"><g transform="translate(171.340023, 41.25)"><g><path d="M 12.046875 -2.171875 C 12.984375 -2.171875 13.859375 -2.320312 14.671875 -2.625 C 15.484375 -2.9375 16.234375 -3.332031 16.921875 -3.8125 L 18.375 -1.84375 C 17.5625 -1.144531 16.578125 -0.59375 15.421875 -0.1875 C 14.273438 0.207031 13.148438 0.40625 12.046875 0.40625 C 10.179688 0.40625 8.59375 0.00390625 7.28125 -0.796875 C 5.96875 -1.597656 4.96875 -2.722656 4.28125 -4.171875 C 3.59375 -5.617188 3.25 -7.320312 3.25 -9.28125 C 3.25 -11.15625 3.597656 -12.835938 4.296875 -14.328125 C 4.992188 -15.816406 5.992188 -16.988281 7.296875 -17.84375 C 8.609375 -18.695312 10.203125 -19.125 12.078125 -19.125 C 13.273438 -19.125 14.398438 -18.941406 15.453125 -18.578125 C 16.503906 -18.210938 17.46875 -17.671875 18.34375 -16.953125 L 16.875 -14.953125 C 16.082031 -15.515625 15.285156 -15.9375 14.484375 -16.21875 C 13.679688 -16.5 12.867188 -16.640625 12.046875 -16.640625 C 10.429688 -16.640625 9.101562 -16.03125 8.0625 -14.8125 C 7.019531 -13.601562 6.5 -11.757812 6.5 -9.28125 C 6.5 -7.625 6.738281 -6.269531 7.21875 -5.21875 C 7.695312 -4.164062 8.351562 -3.394531 9.1875 -2.90625 C 10.019531 -2.414062 10.972656 -2.171875 12.046875 -2.171875 Z M 12.046875 -2.171875 "/></g></g></g><g fill="#ffffff" fill-opacity="1"><g transform="translate(192.679889, 41.25)"><g><path d="M 10.875 -26.28125 L 10.875 -4.625 C 10.875 -3.695312 11.160156 -3.039062 11.734375 -2.65625 C 12.304688 -2.269531 13.050781 -2.078125 13.96875 -2.078125 C 14.53125 -2.078125 15.066406 -2.132812 15.578125 -2.25 C 16.085938 -2.375 16.597656 -2.535156 17.109375 -2.734375 L 17.90625 -0.546875 C 17.40625 -0.296875 16.773438 -0.078125 16.015625 0.109375 C 15.265625 0.304688 14.414062 0.40625 13.46875 0.40625 C 11.800781 0.40625 10.453125 -0.0507812 9.421875 -0.96875 C 8.390625 -1.882812 7.875 -3.15625 7.875 -4.78125 L 7.875 -23.90625 L 2.140625 -23.90625 L 2.140625 -26.28125 Z M 10.875 -26.28125 "/></g></g></g><g fill="#ffffff" fill-opacity="1"><g transform="translate(214.019755, 41.25)"><g><path d="M 6.5625 -18.734375 L 6.5625 -5.46875 C 6.5625 -4.226562 6.816406 -3.332031 7.328125 -2.78125 C 7.835938 -2.238281 8.632812 -1.96875 9.71875 -1.96875 C 10.75 -1.96875 11.722656 -2.257812 12.640625 -2.84375 C 13.554688 -3.4375 14.269531 -4.140625 14.78125 -4.953125 L 14.78125 -18.734375 L 17.765625 -18.734375 L 17.765625 0 L 15.234375 0 L 14.984375 -2.53125 C 14.242188 -1.582031 13.332031 -0.851562 12.25 -0.34375 C 11.175781 0.15625 10.085938 0.40625 8.984375 0.40625 C 7.171875 0.40625 5.816406 -0.0703125 4.921875 -1.03125 C 4.023438 -2 3.578125 -3.359375 3.578125 -5.109375 L 3.578125 -18.734375 Z M 6.5625 -18.734375 "/></g></g></g><g fill="#ffffff" fill-opacity="1"><g transform="translate(235.359621, 41.25)"><g><path d="M 6.5625 -16.296875 C 7.25 -17.191406 8.039062 -17.882812 8.9375 -18.375 C 9.832031 -18.875 10.820312 -19.125 11.90625 -19.125 C 13.570312 -19.125 14.921875 -18.71875 15.953125 -17.90625 C 16.984375 -17.101562 17.734375 -15.96875 18.203125 -14.5 C 18.679688 -13.039062 18.921875 -11.332031 18.921875 -9.375 C 18.921875 -7.488281 18.632812 -5.804688 18.0625 -4.328125 C 17.5 -2.847656 16.664062 -1.6875 15.5625 -0.84375 C 14.46875 -0.0078125 13.117188 0.40625 11.515625 0.40625 C 9.335938 0.40625 7.632812 -0.375 6.40625 -1.9375 L 6.1875 0 L 3.578125 0 L 3.578125 -26.28125 L 6.5625 -26.640625 Z M 10.796875 -2.015625 C 12.359375 -2.015625 13.5625 -2.617188 14.40625 -3.828125 C 15.25 -5.035156 15.671875 -6.890625 15.671875 -9.390625 C 15.671875 -11.023438 15.503906 -12.382812 15.171875 -13.46875 C 14.835938 -14.5625 14.34375 -15.375 13.6875 -15.90625 C 13.03125 -16.445312 12.222656 -16.71875 11.265625 -16.71875 C 10.210938 -16.71875 9.289062 -16.40625 8.5 -15.78125 C 7.71875 -15.164062 7.070312 -14.476562 6.5625 -13.71875 L 6.5625 -4.421875 C 7.050781 -3.691406 7.664062 -3.109375 8.40625 -2.671875 C 9.144531 -2.234375 9.941406 -2.015625 10.796875 -2.015625 Z M 10.796875 -2.015625 "/></g></g></g><g fill="#ffffff" fill-opacity="1"><g transform="translate(256.699487, 41.25)"><g><path d="M 4.28125 3.671875 L 1.875 2.59375 L 17.09375 -28.796875 L 19.484375 -27.625 Z M 4.28125 3.671875 "/></g></g></g><g fill="#ffffff" fill-opacity="1"><g transform="translate(278.039353, 41.25)"><g><path d="M 4.578125 -21.140625 L 18.25 -12.6875 L 18.25 -9.625 L 4.75 -1.171875 L 3.125 -3.375 L 15.6875 -11.140625 L 3.125 -18.875 Z M 4.578125 -21.140625 "/></g></g></g></svg>